**ABCDEFGHIJKLMNOPQRSTUVWXYZabcdefghijklmnopqrstuvwxyz**************************
**PARASOLID !"#$%&'()*+,-./:;<=>?@[\]^_`{|}~0123456789**************************
**PART1;
MC=AMD64;
MC_MODEL=AMD64 Family 23 Model 96 Stepping 1, AuthenticAMD;
MC_ID=unknown;
OS=Windows_NT;
OS_RELEASE=unknown;
FRU=Parasolid Version 32.1, build 255,  1- 1-2021;
APPL=SOLIDWORKS 2021-2021085;
SITE=;
USER=unknown;
FORMAT=text;
GUISE=transmit;
KEY=ek210Yiming Yu-coaster;
FILE=ek210Yiming Yu-coaster.x_t;
DATE=Sat Feb  5 10:36:46 2022;
**PART2;
SCH=SCH_3201255_32001;
USFLD_SIZE=0;
**PART3;
**END_OF_HEADER*****************************************************************
T51 : TRANSMIT FILE created by modeller version 320125523 SCH_3201255_32001_1300
6229 0 12 34 CCCCCCI4 mesh1006 0 I8 polyline1008 0 CCCCCCCDI5 owner1040 0 CCCCCC
I13 boundary_mesh1006 0 I17 boundary_polyline1008 0 CCCA16 index_map_offset0 0 1
 dA9 index_map82 0 A17 node_id_index_map82 0 A20 schema_embedding_map82 0 A5 chi
ld12 0 A14 lowest_node_id0 0 1 dA16 mesh_offset_data206 0 Z1 921 2 3 0 0 0 0 0 0
 1e3 1e-8 0 4 0 1 0 1 1 5 6 7 8 0 0 9 10 11 0 0 0 0 0 0 0 81 255 2 2 902 12 1 13
 0 0 0 0 14 70 11 CI9 list_type0 0 1 uI10 notransmit0 0 1 lCCCDCCDI12 finger_ind
ex0 0 1 dI12 finger_block1012 0 CZ3 0 4 T1 0 0 8 20 1 15 15 13 255 5 99 0 1 0 16
 0 0 17 0 51 255 6 714 0 18 19 0 0 +-.03175 .00381 .03175 0 -1 0 .00635 0 0 -1 3
1 255 7 527 0 10 20 0 0 --.03175 .0127 .03175 0 1 0 0 0 1 .00635 29 255 8 467 0
 11 21 0 -.0381 .00381 .03175 19 8 CCCCCCCA5 owner12 0 Z9 33 0 1 17 0 22 V0 16 2
55 10 520 0 ?23 0 24 7 0 0 1 18 255 11 465 0 25 0 26 8 ?1 17 255 25 0 27 28 29 1
1 30 31 0 32 +18 26 462 0 33 11 34 21 ?1 17 33 0 35 32 36 26 37 38 0 28 +18 34 4
59 0 39 26 40 41 ?1 29 21 464 0 26 41 8 -.0381 .00381 -.03175 29 41 461 0 34 42
 21 -.03175 .00381 -.0381 29 42 458 0 40 43 41 .03175 .00381 -.0381 18 40 456 0
 44 34 45 42 ?1 29 43 445 0 45 46 42 .03175 .00381 .0381 18 45 443 0 47 40 48 43
 ?1 29 46 442 0 48 49 43 -.03175 .00381 .0381 18 48 440 0 50 45 51 46 ?1 29 49 4
29 0 51 52 46 .0381 .00381 -.03175 18 51 427 0 53 48 54 49 ?1 29 52 426 0 54 55
 49 .0381 .00381 .03175 18 54 424 0 56 51 57 52 ?1 29 55 383 0 57 58 52 .0381 .0
127 .04445 18 57 381 0 59 54 60 55 ?1 29 58 380 0 60 61 55 -.0381 .0127 .04445 1
8 60 378 0 62 57 63 58 ?1 29 61 377 0 63 64 58 .04445 .0127 -.0381 18 63 375 0 6
5 60 66 61 ?1 29 64 374 0 66 67 61 .04445 .0127 .0381 18 66 372 0 68 63 69 64 ?1
 29 67 371 0 69 70 64 -.03175 .0127 -.0381 18 69 369 0 71 66 72 67 ?1 29 70 368
 0 72 73 67 .03175 .0127 -.0381 18 72 366 0 74 69 75 70 ?1 29 73 365 0 75 76 70
 -.0381 .0127 .03175 18 75 363 0 23 72 77 73 ?1 29 76 362 0 77 78 73 -.0381 .012
7 -.03175 18 77 360 0 79 75 80 76 ?1 29 78 359 0 80 81 76 .03175 .0127 .0381 18
 80 357 0 82 77 83 78 ?1 29 81 356 0 83 84 78 -.03175 .0127 .0381 18 83 354 0 85
 80 86 81 ?1 29 84 353 0 86 87 81 .0381 .0127 -.03175 18 86 351 0 88 83 89 84 ?1
 29 87 350 0 89 90 84 .0381 .0127 .03175 18 89 348 0 91 86 92 87 ?1 29 90 337 0
 92 93 87 -.0381 .0127 -.04445 18 92 335 0 94 89 95 90 ?1 29 93 334 0 95 96 90 .
0381 .0127 -.04445 18 95 332 0 97 92 98 93 ?1 29 96 311 0 98 99 93 -.0381 0 -.04
445 18 98 309 0 100 95 101 96 ?1 29 99 308 0 101 102 96 .0381 0 -.04445 18 101 3
06 0 103 98 104 99 ?1 29 102 305 0 104 105 99 .0381 0 .04445 18 104 303 0 106 10
1 107 102 ?1 29 105 302 0 107 108 102 -.0381 0 .04445 18 107 300 0 109 104 110 1
05 ?1 29 108 299 0 110 111 105 .04445 0 -.0381 18 110 297 0 112 107 113 108 ?1 2
9 111 296 0 113 114 108 .04445 0 .0381 18 113 294 0 115 110 116 111 ?1 29 114 28
3 0 116 117 111 -.04445 .0127 .0381 18 116 281 0 118 113 119 114 ?1 29 117 280 0
 119 120 114 -.04445 .0127 -.0381 18 119 278 0 121 116 122 117 ?1 29 120 277 0 1
22 123 117 -.04445 0 .0381 18 122 275 0 124 119 125 120 ?1 29 123 274 0 125 0 12
0 -.04445 0 -.0381 18 125 272 0 126 122 0 123 ?1 17 126 0 127 128 129 125 100 13
0 0 131 -15 255 127 556 0 132 133 0 17 128 0 127 132 126 119 131 134 0 0 -17 129
 0 127 126 132 98 94 135 0 0 -17 100 0 136 137 138 98 126 130 0 139 +16 130 327
 0 ?100 140 141 142 0 0 1 17 131 0 143 144 145 125 128 134 0 138 +15 143 85 0 14
5 146 0 17 144 0 143 118 131 122 138 147 0 148 +17 145 0 143 131 118 119 149 150
 0 128 -16 134 289 0 ?131 151 152 153 0 0 1 17 138 0 136 100 124 125 144 147 0 0
 -15 136 49 0 138 154 0 17 124 0 136 138 155 122 109 151 0 144 +16 147 273 0 ?14
4 156 157 158 0 0 1 16 156 301 0 ?159 160 147 161 0 0 1 16 157 307 0 ?139 147 16
2 163 0 0 1 30 255 158 72 0 147 163 161 0 +-.04445 0 -.04445 156105599637958e-30
 0 1 30 163 73 0 157 164 158 0 +-.04445 0 -.04445 -1 0 0 30 161 71 0 156 158 165
 0 +-.04445 0 .04445 1 0 0 30 165 286 0 152 161 153 0 --.04445 .0127 .0381 0 -1
 0 16 152 284 0 ?118 134 166 165 0 0 1 30 153 291 0 134 165 167 0 +-.04445 .0127
 -.0381 0 -1 0 31 167 314 0 151 153 168 0 --.0381 0 .0381 0 1 0 0 0 1 .00635 16
 151 312 0 ?124 169 134 167 0 0 1 31 168 319 0 169 167 170 0 -.0381 0 .0381 0 1
 0 0 0 1 .00635 16 169 317 0 ?106 141 151 168 0 0 1 31 170 324 0 141 168 142 0 -
.0381 0 -.0381 0 1 0 0 0 1 .00635 16 141 322 0 ?112 130 169 170 0 0 1 31 142 329
 0 130 170 171 0 --.0381 0 -.0381 0 1 0 0 0 1 .00635 30 171 340 0 140 142 172 0
 +.0381 .0127 -.04445 0 -1 0 16 140 338 0 ?173 135 130 171 0 0 1 30 172 345 0 13
5 171 174 0 --.0381 .0127 -.04445 0 -1 0 16 135 343 0 ?94 175 140 172 0 0 1 31 1
74 386 0 175 172 176 0 +-.0381 .0127 .0381 0 1 0 0 0 1 .00635 16 175 384 0 ?62 1
77 135 174 0 0 1 31 176 391 0 177 174 178 0 +.0381 .0127 .0381 0 1 0 0 0 1 .0063
5 16 177 389 0 ?68 179 175 176 0 0 1 31 178 396 0 179 176 180 0 +.0381 .0127 -.0
381 0 1 0 0 0 1 .00635 16 179 394 0 ?97 181 177 178 0 0 1 31 180 401 0 181 178 1
82 0 +-.0381 .0127 -.0381 0 1 0 0 0 1 .00635 16 181 399 0 ?121 183 179 180 0 0 1
 30 182 406 0 183 180 184 0 +.04445 .0127 .0381 0 -1 0 16 183 404 0 ?185 186 181
 182 0 0 1 30 184 411 0 186 182 187 0 -.04445 .0127 -.0381 0 -1 0 16 186 409 0 ?
65 188 183 184 0 0 1 30 187 416 0 188 184 189 0 +-.0381 .0127 .04445 0 -1 0 16 1
88 414 0 ?190 191 186 187 0 0 1 30 189 421 0 191 187 192 0 -.0381 .0127 .04445 0
 -1 0 16 191 419 0 ?59 193 188 189 0 0 1 30 192 432 0 193 189 194 0 -.0381 .0038
1 -.03175 0 1 0 16 193 430 0 ?53 195 191 192 0 0 1 30 194 437 0 195 192 196 0 +.
0381 .0127 .03175 0 1 0 16 195 435 0 ?197 198 193 194 0 0 1 30 196 448 0 198 194
 199 0 +-.03175 .0127 .0381 0 1 0 16 198 446 0 ?200 201 195 196 0 0 1 30 199 453
 0 201 196 202 0 -.03175 .00381 .0381 0 1 0 16 201 451 0 ?47 203 198 199 0 0 1 3
1 202 470 0 203 199 204 0 +-.03175 .00381 .03175 0 1 0 0 0 1 .00635 16 203 468 0
 ?50 38 201 202 0 0 1 31 204 475 0 38 202 205 0 +-.03175 .00381 -.03175 0 1 0 0
 0 1 .00635 16 38 473 0 ?33 206 203 204 0 0 1 31 205 480 0 206 204 207 0 +.03175
 .00381 -.03175 0 1 0 0 0 1 .00635 16 206 478 0 ?44 208 38 205 0 0 1 31 207 485
 0 208 205 209 0 +.03175 .00381 .03175 0 1 0 0 0 1 .00635 16 208 483 0 ?56 210 2
06 207 0 0 1 30 209 490 0 210 207 211 0 --.03175 .00381 -.0381 0 1 0 16 210 488
 0 ?39 212 208 209 0 0 1 30 211 495 0 212 209 213 0 +.03175 .0127 -.0381 0 1 0 1
6 212 493 0 ?214 31 210 211 0 0 1 30 213 500 0 31 211 215 0 --.0381 .00381 .0317
5 0 1 0 16 31 498 0 ?25 216 212 213 0 0 1 30 215 505 0 216 213 217 0 +-.0381 .01
27 -.03175 0 1 0 16 216 503 0 ?218 219 31 215 0 0 1 31 217 524 0 219 215 220 0 -
.03175 .0127 .03175 0 1 0 0 0 1 .00635 16 219 508 0 ?82 221 216 217 0 0 1 31 220
 525 0 221 217 20 0 -.03175 .0127 -.03175 0 1 0 0 0 1 .00635 16 221 512 0 ?88 24
 219 220 0 0 1 31 20 526 0 24 220 7 0 --.03175 .0127 -.03175 0 1 0 0 0 1 .00635
 16 24 516 0 ?71 10 221 20 0 0 1 17 71 0 222 223 224 69 79 24 0 225 +15 222 153
 0 226 227 228 17 223 0 222 88 71 72 225 229 0 0 -17 224 0 222 71 23 77 29 230 0
 0 -17 79 0 231 232 233 77 71 24 0 218 -17 225 0 234 39 214 69 223 229 0 233 +15
 234 209 0 235 236 0 17 39 0 234 235 225 34 233 210 0 36 +17 214 0 234 225 235 7
2 237 212 0 223 +16 229 367 0 ?225 230 238 239 0 0 1 17 233 0 231 79 37 69 39 21
0 0 0 -15 231 682 0 37 240 0 17 37 0 231 233 232 34 33 38 0 0 -17 232 0 231 37 7
9 26 218 216 0 0 -17 218 0 27 29 28 77 232 216 0 224 +15 27 205 0 28 241 0 17 29
 0 27 25 218 75 224 230 0 30 +17 28 0 27 218 25 26 32 242 0 232 -17 32 0 35 50 3
3 11 28 242 0 243 +16 242 463 0 ?32 244 245 246 0 0 1 16 244 441 0 ?247 162 242
 248 0 0 1 16 245 457 0 ?36 242 249 250 0 0 1 30 246 233 0 242 250 248 0 +-.0381
 .00381 -.0381 0 0 1 30 250 234 0 245 251 246 0 +-.0381 .00381 -.0381 -1 0 0 30
 248 232 0 244 246 252 0 +-.0381 .00381 .0381 1 0 0 30 252 231 0 238 248 239 0 +
.0381 .0127 -.0381 0 0 -1 16 238 349 0 ?253 229 0 252 0 0 1 30 239 230 0 229 252
 254 0 +-.0381 .0127 -.0381 -1 0 0 30 254 229 0 230 239 255 0 +-.0381 .0127 -.03
81 0 0 1 16 230 361 0 ?29 256 229 254 0 0 1 30 255 228 0 256 254 257 0 +-.0381 .
0127 .0381 1 0 0 16 256 355 0 ?258 249 230 255 0 0 1 30 257 7 0 160 255 259 0 +.
04445 .0127 -.04445 0 0 -1 16 160 373 0 ?260 261 156 257 0 0 1 30 259 11 0 261 2
57 262 0 +-.04445 .0127 -.04445 -1 0 0 16 261 333 0 ?263 150 160 259 0 0 1 30 26
2 15 0 150 259 264 0 +-.04445 .0127 -.04445 156105599637958e-30 0 1 16 150 279 0
 ?149 166 261 262 0 0 1 30 264 19 0 166 262 164 0 +-.04445 .0127 .04445 1 0 0 16
 166 379 0 ?265 152 150 264 0 0 1 30 164 74 0 162 264 163 0 +.04445 0 -.04445 0
 0 -1 16 162 295 0 ?266 157 244 164 0 0 1 17 266 0 267 65 185 110 268 162 0 269
 +15 267 89 0 266 16 0 17 65 0 267 270 266 63 269 186 0 260 +17 185 0 267 266 27
0 113 271 183 0 268 +17 268 0 136 106 112 113 266 162 0 0 -17 269 0 272 103 273
 110 65 186 0 0 -15 272 577 0 273 274 0 17 103 0 272 275 269 101 112 141 0 173 -
17 273 0 272 269 275 63 97 179 0 0 -17 275 0 272 273 103 95 173 140 0 0 -17 97 0
 228 263 260 95 273 179 0 276 +15 228 4 0 263 227 0 17 263 0 228 121 97 92 276 2
61 0 132 +17 260 0 228 97 68 63 270 160 0 273 +17 276 0 277 173 94 95 263 261 0
 275 -15 277 87 0 139 278 0 17 173 0 277 139 276 101 275 140 0 137 +17 94 0 277
 276 139 92 129 135 0 263 +17 139 0 277 94 173 98 137 157 0 129 +17 137 0 136 11
2 100 101 139 157 0 0 -17 112 0 136 268 137 110 103 141 0 266 +14 255 278 88 279
 ?146 16 277 5 280 -0 0 146 16 22 81 1 279 903 281 278 282 0 0 283 284 14 146 86
 283 ?285 278 143 5 286 -0 0 285 278 22 14 16 90 287 ?278 0 267 5 288 -0 0 278 0
 22 50 255 280 93 0 278 286 288 0 +-.04445 .0127 -.04445 0 0 1 1 0 0 13 22 34 0
 0 0 0 0 0 9 16 50 286 92 0 146 289 280 0 +-.04445 .0127 -.04445 1 0 -1561055996
37958e-30 -156105599637958e-30 0 -1 50 288 94 0 16 280 290 0 +.04445 .0127 -.044
45 -1 0 0 0 0 1 51 290 567 0 133 288 291 0 +-.0381 .0127 -.0381 0 -1 0 .00635 0
 0 -1 14 133 555 292 ?274 293 127 5 290 +0 0 274 293 22 51 291 588 0 274 290 294
 0 +.0381 .0127 -.0381 0 -1 0 .00635 0 0 -1 14 274 576 295 ?296 133 272 5 291 +0
 0 296 133 22 51 294 609 0 296 291 297 0 +.0381 .0127 .0381 0 -1 0 .00635 0 0 -1
 14 296 597 298 ?299 274 300 5 294 +0 0 299 274 22 51 297 630 0 299 294 301 0 +-
.0381 .0127 .0381 0 -1 0 .00635 0 0 -1 14 299 618 302 ?303 296 304 5 297 +0 0 30
3 296 22 51 301 651 0 303 297 305 0 +.03175 .00381 .03175 0 -1 0 .00635 0 0 -1 1
4 303 639 306 ?307 299 308 5 301 -0 0 307 299 22 51 305 672 0 307 301 19 0 +.031
75 .00381 -.03175 0 -1 0 .00635 0 0 -1 14 307 660 309 ?240 303 310 5 305 -0 0 24
0 303 22 51 19 693 0 240 305 6 0 +-.03175 .00381 -.03175 0 -1 0 .00635 0 0 -1 14
 240 681 311 ?18 307 231 5 19 -0 0 18 307 22 81 1 311 912 281 240 312 0 309 313
 314 14 18 702 313 ?0 240 315 5 6 -0 0 0 240 22 81 1 313 913 281 18 316 0 311 31
7 318 15 315 703 0 243 18 0 17 243 0 315 30 319 11 50 203 0 0 -17 30 0 315 85 24
3 75 25 31 0 0 -17 319 0 315 243 85 48 200 198 0 0 -17 50 0 35 247 32 48 243 203
 0 320 +15 35 212 0 247 293 0 17 247 0 35 56 50 45 320 244 0 321 +17 320 0 322 2
00 47 48 247 244 0 319 -15 322 201 0 258 323 0 17 200 0 322 258 320 83 319 198 0
 324 +17 47 0 322 320 258 45 325 201 0 247 +17 258 0 322 47 200 80 324 256 0 325
 +17 325 0 308 91 321 80 47 201 0 0 -15 308 640 0 321 303 0 17 91 0 308 326 325
 89 82 219 0 197 -17 321 0 308 325 326 45 56 208 0 0 -17 326 0 308 321 91 54 197
 195 0 0 -17 56 0 35 327 247 54 321 208 0 328 +17 327 0 35 44 56 51 328 249 0 32
9 +17 328 0 330 197 53 54 327 249 0 326 -15 330 197 0 328 331 0 17 197 0 330 253
 328 89 326 195 0 226 +17 53 0 330 328 253 51 332 193 0 327 +16 249 425 0 ?327 2
45 256 251 0 0 1 30 251 235 0 249 0 250 0 +.0381 .00381 -.0381 0 0 -1 17 253 0 3
30 53 197 86 226 238 0 332 +17 332 0 310 74 329 86 53 193 0 0 -15 310 661 0 329
 307 0 17 74 0 310 237 332 72 88 221 0 214 -17 329 0 310 332 237 51 44 206 0 0 -
17 237 0 310 329 74 40 214 212 0 0 -17 44 0 35 36 327 40 329 206 0 235 +17 36 0
 35 33 44 34 235 245 0 37 +17 235 0 234 214 39 40 36 245 0 237 -17 88 0 222 226
 223 86 74 221 0 253 +17 226 0 222 82 88 89 253 238 0 0 -17 82 0 222 324 226 80
 91 219 0 258 +17 324 0 222 23 82 83 258 256 0 0 -17 23 0 222 224 324 75 85 10 0
 29 +17 85 0 315 319 30 83 23 10 0 200 -14 331 194 317 ?323 154 330 5 333 -0 0 3
23 154 22 81 1 317 914 281 331 334 0 313 335 336 14 323 198 335 ?241 331 322 5 3
37 -0 0 241 331 22 14 154 48 338 ?331 227 136 5 339 -0 0 331 227 22 50 333 218 0
 331 340 341 0 +.0381 .00381 -.0381 1 0 0 0 0 -1 50 340 219 0 236 342 333 0 +-.0
381 .00381 -.0381 0 0 -1 -1 0 0 50 341 3 0 227 333 339 0 +0 .0127 0 0 1 0 0 0 1
 14 227 1 343 ?154 285 222 5 341 +0 0 154 285 22 50 339 70 0 154 341 289 0 +0 0
 0 0 1 0 0 0 1 50 289 91 0 285 339 286 0 +-.04445 .0127 .04445 0 0 -1 -1 0 0 14
 285 84 344 ?227 146 345 5 289 -0 0 227 146 22 81 1 344 918 281 285 346 0 343 34
7 348 15 345 83 0 159 285 0 17 159 0 345 59 190 104 155 156 0 349 +17 59 0 345 3
50 159 57 349 191 0 265 +17 190 0 345 159 350 107 351 188 0 155 +17 155 0 136 12
4 106 107 159 156 0 0 -17 349 0 300 115 352 104 59 191 0 0 -15 300 598 0 352 296
 0 17 115 0 300 271 349 113 106 169 0 185 -17 352 0 300 349 271 57 68 177 0 0 -1
7 271 0 300 352 115 66 185 183 0 0 -17 68 0 228 260 265 66 352 177 0 270 +17 265
 0 228 68 62 57 350 166 0 352 +17 270 0 267 185 65 66 260 160 0 271 -17 62 0 228
 265 149 60 353 175 0 350 +17 350 0 345 190 59 60 265 166 0 351 -17 351 0 304 35
3 109 60 190 188 0 0 -15 304 619 0 353 299 0 17 353 0 304 148 351 116 62 175 0 0
 -17 109 0 304 351 148 107 124 151 0 190 -17 148 0 304 109 353 122 118 152 0 0 -
17 118 0 143 145 144 116 148 152 0 149 +17 149 0 228 62 121 116 145 150 0 353 +1
7 121 0 228 149 263 119 132 181 0 145 +17 132 0 127 129 128 92 121 181 0 0 -17 1
06 0 136 155 268 104 115 169 0 159 +80 255 1 281 354 355 9000 1 1 1 1 1 1 1 1 0
 FFFFTFTFFFFFFF1 81 1 346 847 356 285 0 344 357 358 359 81 1 343 917 281 227 358
 0 338 344 360 81 1 347 919 281 241 361 0 344 362 363 82 255 1 348 -906821502 14
 241 202 347 ?236 323 27 5 342 -0 0 236 323 22 81 1 361 852 356 241 0 347 364 36
5 366 81 1 362 920 281 236 365 0 347 367 368 82 1 363 -761593726 14 236 206 362
 ?293 241 234 5 340 -0 0 293 241 22 81 1 365 853 356 236 0 362 361 369 370 81 1
 367 921 281 293 369 0 362 0 371 82 1 368 -761462654 14 293 210 367 ?133 236 35
 5 372 +0 0 133 236 22 81 1 369 854 356 293 0 367 365 373 374 82 1 371 -76827839
8 80 1 356 0 375 8001 0 0 0 0 3 5 0 0 0 FFFFTFTFFFFFFF2 81 1 373 855 356 133 0 2
92 369 376 377 83 255 3 374 .792156862745098 .819607843137255 .933333333333333 8
1 1 292 906 281 133 373 0 287 295 378 81 1 376 856 356 274 0 295 373 379 380 83
 3 377 .792156862745098 .819607843137255 .933333333333333 81 1 295 907 281 274 3
76 0 292 298 381 81 1 379 857 356 296 0 298 376 382 383 83 3 380 .79215686274509
8 .819607843137255 .933333333333333 81 1 298 908 281 296 379 0 295 302 384 81 1
 382 858 356 299 0 302 379 385 386 83 3 383 .792156862745098 .819607843137255 .9
33333333333333 81 1 302 909 281 299 382 0 298 306 387 81 1 385 859 356 303 0 306
 382 388 389 83 3 386 .792156862745098 .819607843137255 .933333333333333 81 1 30
6 910 281 303 385 0 302 309 390 81 1 388 860 356 307 0 309 385 312 391 83 3 389
 .792156862745098 .819607843137255 .933333333333333 81 1 309 911 281 307 388 0 3
06 311 392 81 1 312 861 356 240 0 311 388 316 393 83 3 391 .792156862745098 .819
607843137255 .933333333333333 81 1 316 862 356 18 0 313 312 0 394 83 3 393 .7921
56862745098 .819607843137255 .933333333333333 83 3 394 .792156862745098 .8196078
43137255 .933333333333333 82 1 392 795803778 82 1 390 793837698 82 1 387 7918716
18 82 1 384 789905538 82 1 381 787939458 81 1 287 905 281 16 395 0 283 292 396 8
2 1 378 785973378 81 1 395 844 356 16 0 287 0 282 397 81 1 283 904 281 146 357 0
 279 287 398 82 1 396 -906035070 81 1 357 846 356 146 0 283 282 346 399 82 1 398
 -906559358 81 1 282 845 356 278 0 279 395 357 400 83 3 399 .792156862745098 .81
9607843137255 .933333333333333 83 3 400 .792156862745098 .819607843137255 .93333
3333333333 83 3 397 .792156862745098 .819607843137255 .933333333333333 79 255 15
 375 SDL/TYSA_COLOUR50 372 223 0 293 0 337 0 +0 .00381 0 0 1 0 0 0 1 50 337 221
 0 323 372 342 0 +-.0381 .00381 .0381 0 0 1 1 0 0 50 342 220 0 241 337 340 0 +-.
0381 .00381 -.0381 -1 0 0 0 0 1 83 3 370 .792156862745098 .819607843137255 .9333
33333333333 81 1 364 851 356 323 0 335 334 361 401 83 3 366 .792156862745098 .81
9607843137255 .933333333333333 81 1 335 915 281 323 364 0 317 338 402 81 1 334 8
50 356 331 0 317 403 364 404 83 3 401 .792156862745098 .819607843137255 .9333333
33333333 81 1 403 849 356 154 0 338 358 334 405 83 3 404 .792156862745098 .81960
7843137255 .933333333333333 81 1 338 916 281 154 403 0 335 343 406 81 1 358 848
 356 227 0 343 346 403 407 83 3 405 .792156862745098 .819607843137255 .933333333
333333 83 3 407 .792156862745098 .819607843137255 .933333333333333 82 1 406 -907
739006 82 1 402 -761724798 82 1 360 -913375102 83 3 359 .792156862745098 .819607
843137255 .933333333333333 79 14 355 SWEntUnchanged82 1 336 -761331582 82 1 318
 799735938 82 1 314 797769858 82 1 284 -906297214 19 17 100 0 1 0 9 5 S0 74 4 CI
16 index_map_offset0 0 1 dCCZ20 15 8 0 0 408 409 410 367 411 13 316 2 0 0 0 0 0
 0 0 0 0 0 0 0 81 2 408 124 412 1 0 409 0 0 0 413 81 2 409 128 414 1 408 410 0 0
 0 415 81 2 410 263 416 1 409 411 0 0 0 0 81 1 411 755 417 1 410 13 0 0 418 81 2
 13 776 419 1 411 2 0 0 420 0 80 2 419 421 422 8004 0 0 0 0 3 5 0 0 0 FFTFFFFFFF
FFFF2 3 83 1 420 1 79 16 422 SDL/TYSA_DENSITY80 1 417 423 424 9000 1 1 1 1 1 1 1
 1 0 FFTFFFFFFFFFFF1 82 1 418 444813 79 10 424 BODY_MATCH80 2 416 425 426 9000 0
 0 0 0 3 5 0 0 0 FFTFFFFFFFFFFF9 1 79 16 426 BODY_RECIPE_200180 2 414 427 428 90
00 0 0 0 0 3 5 0 0 0 FFTFFFFFFFFFFF9 1 82 1 415 60 79 30 428 LAST_BODY_MODIFYING
_FEATURE_ID80 2 412 429 430 9000 0 0 0 0 3 5 0 0 0 FFTFFFFFFFFFFT9 1 82 1 413 11
2 79 19 430 ENT_TIME_STAMP_200180 2 12 431 432 9000 0 0 0 0 3 5 0 0 0 FFTFFFFFFF
FFFF9 1 82 1 14 103 79 12 432 ATOM_ID_20011 0 
